<?xml version="1.0" standalone="no"?>
<!DOCTYPE svg PUBLIC "-//W3C//DTD SVG 20010904//EN"
 "http://www.w3.org/TR/2001/REC-SVG-20010904/DTD/svg10.dtd">
<svg version="1.0" xmlns="http://www.w3.org/2000/svg"
 width="1024.000000pt" height="1024.000000pt" viewBox="0 0 1024.000000 1024.000000"
 preserveAspectRatio="xMidYMid meet">
<metadata>
Created by potrace 1.14, written by Peter Selinger 2001-2017
</metadata>
<g transform="translate(0.000000,1024.000000) scale(0.100000,-0.100000)"
fill="#000000" stroke="none">
<path d="M0 5120 l0 -5120 5120 0 5120 0 0 5120 0 5120 -5120 0 -5120 0 0
-5120z m4498 3318 l-3 -413 -160 -5 c-147 -5 -165 -7 -217 -32 -100 -47 -180
-136 -225 -248 -16 -41 -18 -115 -23 -915 l-6 -870 -27 -96 c-81 -295 -227
-515 -465 -699 -46 -35 -81 -66 -80 -70 2 -3 49 -47 105 -98 241 -218 352
-386 427 -644 44 -151 46 -201 46 -986 0 -813 2 -832 56 -932 36 -67 120 -145
191 -178 53 -25 71 -27 218 -32 l160 -5 3 -414 2 -413 -207 5 c-180 4 -221 8
-308 30 -313 80 -564 261 -742 534 -86 131 -136 255 -176 428 -19 85 -20 132
-26 911 l-6 821 -40 79 c-39 77 -46 84 -360 364 -192 172 -333 305 -353 334
-48 72 -65 142 -60 251 4 104 33 177 97 248 20 22 153 128 296 235 285 213
322 245 365 312 61 97 60 77 60 940 0 808 3 884 41 1035 94 370 361 685 709
836 170 73 297 97 533 98 l177 1 -2 -412z m1668 397 c438 -77 817 -404 958
-827 61 -183 59 -148 65 -1078 7 -956 2 -897 80 -1010 30 -45 91 -96 336 -280
329 -247 357 -276 395 -398 37 -119 18 -251 -52 -354 -19 -29 -152 -154 -323
-307 -159 -142 -304 -273 -322 -291 -42 -43 -88 -133 -102 -198 -7 -36 -11
-295 -11 -810 0 -622 -3 -773 -15 -849 -64 -396 -318 -739 -680 -918 -193 -95
-334 -125 -596 -125 l-159 0 2 413 3 412 160 5 c157 5 161 6 224 39 85 43 155
115 194 199 l32 67 6 825 c5 736 7 833 23 900 74 319 196 513 484 771 l84 74
-85 62 c-200 148 -350 352 -435 595 -67 189 -66 166 -72 1103 l-5 850 -23 57
c-41 102 -102 167 -212 224 -52 27 -63 29 -215 34 l-160 5 -3 413 -2 412 169
0 c107 0 201 -6 257 -15z"/>
</g>
</svg>
